<?xml version="1.0" standalone="no"?>
<!DOCTYPE svg PUBLIC "-//W3C//DTD SVG 20010904//EN"
 "http://www.w3.org/TR/2001/REC-SVG-20010904/DTD/svg10.dtd">
<svg version="1.0" xmlns="http://www.w3.org/2000/svg"
 width="100.000000pt" height="90.000000pt" viewBox="0 0 100.000000 90.000000"
 preserveAspectRatio="xMidYMid meet">

<g transform="translate(0.000000,90.000000) scale(0.100000,-0.100000)"
fill="#000000" stroke="none">
<path d="M481 796 c-9 -11 -9 -16 0 -22 7 -4 9 -3 5 4 -10 16 13 25 29 12 9
-7 15 -8 15 -2 0 5 -7 13 -16 16 -21 8 -20 8 -33 -8z"/>
<path d="M440 765 c0 -18 -16 -20 -23 -2 -4 9 -6 9 -6 0 -1 -17 19 -27 31 -15
6 6 18 8 27 4 14 -5 14 -4 -1 11 -20 21 -28 21 -28 2z"/>
<path d="M551 768 c-1 -20 19 -35 28 -21 3 6 13 13 21 16 10 4 8 6 -7 6 -13 1
-23 -5 -24 -11 0 -7 -4 -4 -9 7 -7 16 -9 17 -9 3z"/>
<path d="M366 761 c-6 -10 24 -25 32 -16 3 3 -1 5 -9 5 -11 0 -11 2 1 10 13 8
13 10 -2 10 -9 0 -19 -4 -22 -9z"/>
<path d="M515 760 c3 -5 8 -10 11 -10 2 0 4 5 4 10 0 6 -5 10 -11 10 -5 0 -7
-4 -4 -10z"/>
<path d="M260 713 c-14 -17 -16 -26 -12 -60 1 -6 19 -17 40 -24 20 -6 42 -14
47 -18 6 -3 18 -4 27 -3 12 2 16 -2 12 -11 -4 -11 -18 -13 -52 -11 -31 3 -40
1 -28 -4 14 -6 16 -11 8 -16 -7 -4 -12 -15 -11 -24 0 -12 3 -11 9 6 7 15 18
22 37 22 37 1 82 26 137 78 49 46 56 49 56 28 0 -8 12 -24 28 -36 20 -16 22
-20 7 -15 -15 5 -17 3 -8 -6 6 -6 29 -13 49 -15 26 -2 33 0 24 6 -8 5 -23 7
-32 4 -13 -4 -16 0 -12 20 3 19 -1 26 -17 31 -12 4 -17 10 -12 14 6 3 15 16
21 27 11 21 10 21 -78 21 -84 0 -88 -1 -77 -18 7 -11 16 -19 20 -19 5 0 15 -6
22 -14 12 -11 11 -17 -8 -34 -18 -16 -33 -19 -82 -16 -50 3 -64 8 -83 29 -15
19 -20 33 -16 51 7 29 4 30 -16 7z m230 -3 c0 -5 -7 -10 -15 -10 -8 0 -15 5
-15 10 0 6 7 10 15 10 8 0 15 -4 15 -10z m60 0 c0 -5 -7 -10 -15 -10 -8 0 -15
5 -15 10 0 6 7 10 15 10 8 0 15 -4 15 -10z"/>
<path d="M722 713 c-5 -10 -6 -27 -2 -38 7 -19 7 -19 18 2 15 26 15 53 2 53
-5 0 -13 -8 -18 -17z"/>
<path d="M308 701 c-5 -15 -11 -21 -20 -16 -7 4 -6 0 3 -9 17 -18 99 -33 99
-19 0 9 -36 43 -45 43 -2 0 -2 -7 2 -16 4 -12 2 -15 -8 -12 -7 2 -16 15 -19
29 l-6 24 -6 -24z"/>
<path d="M670 703 c0 -10 4 -14 8 -8 4 6 11 13 16 18 5 4 2 7 -7 7 -10 0 -17
-8 -17 -17z"/>
<path d="M645 699 c-4 -6 -5 -12 -2 -15 2 -3 7 2 10 11 7 17 1 20 -8 4z"/>
<path d="M760 690 c0 -5 4 -10 9 -10 6 0 13 5 16 10 3 6 -1 10 -9 10 -9 0 -16
-4 -16 -10z"/>
<path d="M190 655 c-5 -14 -13 -25 -18 -25 -9 0 -9 -30 2 -82 6 -27 14 -37 32
-41 31 -6 35 0 22 29 -8 16 -14 21 -19 13 -4 -6 -12 -8 -18 -4 -9 5 -9 10 0
21 6 7 15 12 19 9 4 -3 10 8 13 23 3 15 1 28 -3 30 -5 2 -6 10 -3 19 5 12 3
14 -7 8 -10 -6 -12 -4 -7 8 3 10 4 17 1 17 -2 0 -9 -11 -14 -25z m7 -57 c-3
-8 -6 -5 -6 6 -1 11 2 17 5 13 3 -3 4 -12 1 -19z"/>
<path d="M651 666 c-10 -12 -8 -19 8 -35 26 -26 44 -26 71 -4 30 26 24 34 -15
17 -43 -18 -46 -18 -39 1 4 8 1 15 -6 15 -6 0 -8 5 -5 10 9 15 -1 12 -14 -4z"/>
<path d="M410 660 c-13 -9 -13 -10 0 -10 8 0 22 5 30 10 13 9 13 10 0 10 -8 0
-22 -5 -30 -10z"/>
<path d="M480 586 c0 -2 9 -6 20 -9 11 -3 20 -1 20 4 0 5 -9 9 -20 9 -11 0
-20 -2 -20 -4z"/>
<path d="M653 570 c15 -12 27 -26 27 -32 0 -6 -8 -5 -17 3 -16 13 -17 12 -4
-4 8 -10 14 -36 13 -59 -1 -23 0 -39 3 -36 3 3 6 22 7 42 1 20 5 36 9 36 19 0
-7 43 -35 56 l-31 15 28 -21z"/>
<path d="M689 571 c15 -27 31 -36 31 -17 0 8 -9 20 -21 26 -19 11 -20 10 -10
-9z"/>
<path d="M815 561 c-5 -26 -31 -66 -75 -118 -15 -18 -12 -25 8 -14 19 10 41
33 72 71 11 14 17 18 14 9 -3 -10 -1 -20 5 -24 17 -10 13 -32 -6 -40 -15 -5
-16 -4 -5 6 26 27 10 29 -23 3 -34 -25 -39 -51 -8 -39 13 4 14 3 3 -10 -7 -8
-16 -13 -20 -10 -4 3 -7 -3 -6 -13 1 -12 -9 -18 -34 -22 -24 -4 -34 -10 -31
-20 2 -8 4 -20 4 -26 0 -11 24 -7 70 11 10 4 17 3 17 -4 0 -6 15 -11 34 -11
25 0 35 5 39 20 4 17 0 20 -24 20 -16 0 -29 -5 -29 -12 0 -10 -2 -10 -8 0 -5
7 -16 10 -26 6 -17 -6 -17 -5 -6 17 15 28 57 69 70 69 27 0 23 119 -5 146 -19
20 -23 18 -30 -15z m-70 -221 c3 -5 -1 -10 -9 -10 -9 0 -16 5 -16 10 0 6 4 10
9 10 6 0 13 -4 16 -10z"/>
<path d="M447 551 c-24 -42 -21 -52 4 -13 12 18 20 35 17 37 -2 2 -12 -9 -21
-24z"/>
<path d="M504 545 c-33 -33 -31 -54 4 -24 15 13 24 20 20 15 -4 -5 -1 -20 6
-35 13 -28 11 -61 -5 -61 -6 0 -5 8 1 20 8 16 8 20 -4 20 -10 0 -14 6 -11 18
3 9 -1 3 -9 -13 -11 -23 -13 -55 -7 -139 7 -120 1 -133 -48 -103 -27 16 -31
41 -17 97 5 21 4 21 -8 -4 l-13 -29 -13 23 c-9 18 -9 24 0 30 9 6 9 9 1 11 -7
3 -9 12 -6 22 9 21 25 23 25 3 0 -8 4 -17 10 -21 5 -3 5 6 -1 24 -10 29 -12
30 -35 15 -13 -9 -24 -23 -24 -30 0 -8 -10 -14 -25 -14 -14 0 -25 5 -25 12 0
6 -2 9 -5 6 -3 -3 -2 -13 1 -23 5 -13 14 -15 36 -11 22 4 29 3 25 -7 -3 -7 1
-21 9 -32 15 -20 9 -65 -10 -77 -8 -5 -7 -8 1 -8 7 0 16 8 22 17 9 17 11 16
30 -1 24 -22 20 -36 -4 -16 -8 7 -15 8 -15 2 0 -5 7 -15 15 -22 12 -10 22 -9
51 5 30 14 38 15 46 4 7 -11 11 -11 15 -1 2 6 9 12 15 12 5 0 16 6 23 14 12
12 10 14 -18 12 -30 -1 -32 1 -37 40 -8 52 -4 63 20 57 14 -4 20 0 20 10 0 21
-20 33 -30 17 -5 -9 -9 -9 -14 -1 -4 6 9 31 29 55 35 43 35 45 23 85 -16 51
-32 58 -64 26z"/>
<path d="M116 526 c3 -8 1 -17 -5 -21 -19 -11 -12 -25 12 -23 19 2 22 7 19 30
-2 15 -10 28 -18 28 -7 0 -11 -6 -8 -14z"/>
<path d="M170 478 c0 -10 5 -18 12 -18 9 0 9 -3 0 -12 -17 -17 -15 -31 8 -46
23 -14 109 -29 98 -16 -5 4 -22 9 -39 11 -39 4 -71 21 -64 34 4 5 10 7 14 5 6
-4 7 32 2 55 -3 15 -31 4 -31 -13z"/>
<path d="M431 479 c-1 -26 33 -68 46 -55 4 3 -3 13 -14 21 -12 8 -24 25 -26
38 -4 20 -4 19 -6 -4z"/>
<path d="M220 481 c0 -6 4 -12 8 -15 5 -3 9 1 9 9 0 8 -4 15 -9 15 -4 0 -8 -4
-8 -9z"/>
<path d="M450 470 c0 -5 5 -10 11 -10 5 0 7 5 4 10 -3 6 -8 10 -11 10 -2 0 -4
-4 -4 -10z"/>
<path d="M270 451 c-12 -24 -13 -41 -1 -41 5 0 11 14 13 30 5 35 3 37 -12 11z"/>
<path d="M691 420 c-2 -29 -4 -32 -11 -15 -8 18 -9 17 -9 -7 -1 -26 -1 -26 29
-12 31 16 41 28 16 18 -10 -4 -16 3 -19 23 -4 26 -4 25 -6 -7z"/>
<path d="M123 393 c-18 -7 -16 -32 2 -39 8 -4 12 -11 8 -17 -3 -6 -1 -7 6 -3
13 8 41 -10 41 -26 0 -6 -7 -4 -17 3 -15 13 -15 12 -3 -7 10 -17 16 -19 25
-10 17 17 27 49 13 40 -7 -5 -9 0 -6 14 4 12 3 20 -2 17 -4 -2 -15 4 -25 15
-19 21 -22 22 -42 13z m48 -36 c12 -22 12 -22 -10 -3 -11 11 -21 23 -21 28 0
14 19 -1 31 -25z"/>
<path d="M230 361 c0 -5 5 -13 10 -16 6 -3 10 -2 10 4 0 5 -4 13 -10 16 -5 3
-10 2 -10 -4z"/>
<path d="M291 359 c-1 -9 -15 -20 -32 -25 -18 -5 -38 -19 -47 -32 -14 -21 -13
-22 4 -15 11 4 24 11 29 15 6 4 21 16 34 26 14 11 21 25 18 33 -4 11 -6 11 -6
-2z"/>
<path d="M458 363 c7 -3 16 -2 19 1 4 3 -2 6 -13 5 -11 0 -14 -3 -6 -6z"/>
<path d="M650 351 c0 -6 9 -15 19 -21 16 -8 19 -7 17 8 -3 18 -36 31 -36 13z"/>
<path d="M620 325 c0 -8 6 -14 13 -12 6 1 11 -4 10 -10 -2 -7 2 -13 8 -13 6 0
8 7 5 16 -3 9 -6 20 -6 25 0 5 -7 9 -15 9 -8 0 -15 -7 -15 -15z"/>
<path d="M301 299 c-1 -9 7 -23 17 -30 15 -12 16 -12 6 1 -6 8 -14 22 -17 30
-5 13 -6 12 -6 -1z"/>
<path d="M612 280 c0 -14 2 -19 5 -12 2 6 2 18 0 25 -3 6 -5 1 -5 -13z"/>
<path d="M751 284 c0 -11 3 -14 6 -6 3 7 2 16 -1 19 -3 4 -6 -2 -5 -13z"/>
<path d="M726 250 c1 -16 -2 -30 -7 -30 -5 0 -9 10 -9 23 0 13 -3 17 -8 10 -4
-6 -19 -14 -34 -18 -22 -6 -27 -3 -31 17 l-4 23 -2 -24 c-1 -21 -3 -22 -18
-10 -14 12 -16 12 -11 -1 2 -8 15 -16 29 -18 13 -2 29 -10 36 -18 7 -10 13
-12 18 -5 9 16 22 13 29 -5 4 -9 1 -23 -6 -32 -11 -13 -10 -14 7 -4 11 7 32
16 48 22 15 5 27 16 27 25 0 8 4 15 10 15 5 0 7 7 4 15 -5 13 -9 13 -21 3 -13
-10 -19 -8 -37 15 l-22 28 2 -31z m49 -50 c-3 -5 -12 -10 -18 -10 -7 0 -6 4 3
10 19 12 23 12 15 0z"/>
<path d="M214 229 c-3 -5 5 -9 18 -9 25 0 58 -31 58 -53 0 -21 22 -37 49 -37
15 0 34 -11 48 -27 l22 -28 -12 28 c-7 16 -22 30 -37 33 -40 8 -55 19 -58 43
-2 11 -7 21 -12 21 -5 0 -11 8 -14 18 -6 18 -52 26 -62 11z"/>
<path d="M390 203 c0 -9 40 -36 45 -31 2 2 -8 11 -21 21 -13 10 -24 14 -24 10z"/>
<path d="M525 190 c-13 -6 -15 -9 -5 -9 8 0 22 4 30 9 18 12 2 12 -25 0z"/>
<path d="M690 179 c0 -5 5 -7 10 -4 6 3 10 8 10 11 0 2 -4 4 -10 4 -5 0 -10
-5 -10 -11z"/>
<path d="M650 146 c-6 -8 -24 -17 -38 -19 -24 -4 -23 -4 6 -6 20 0 35 4 38 13
3 9 12 12 21 9 11 -4 14 -2 9 5 -10 16 -21 15 -36 -2z"/>
<path d="M457 89 c7 -7 15 -10 18 -7 3 3 -2 9 -12 12 -14 6 -15 5 -6 -5z"/>
<path d="M500 90 c-9 -6 -10 -10 -3 -10 6 0 15 5 18 10 8 12 4 12 -15 0z"/>
</g>
</svg>
